Coordinates
version=1
nRows=27
nColumns=38
inDegrees=no

Units are S.I. units (second, meters, Newtons, ...)
If the header above contains a line with 'inDegrees', this indicates whether rotational values are in degrees (yes) or radians (no).

endheader
time	pelvis_tilt	pelvis_list	pelvis_rotation	pelvis_tx	pelvis_ty	pelvis_tz	hip_flexion_r	hip_adduction_r	hip_rotation_r	knee_angle_r	ankle_angle_r	subtalar_angle_r	mtp_angle_r	hip_flexion_l	hip_adduction_l	hip_rotation_l	knee_angle_l	ankle_angle_l	subtalar_angle_l	mtp_angle_l	lumbar_extension	lumbar_bending	lumbar_rotation	arm_flex_r	arm_add_r	arm_rot_r	elbow_flex_r	pro_sup_r	wrist_flex_r	wrist_dev_r	arm_flex_l	arm_add_l	arm_rot_l	elbow_flex_l	pro_sup_l	wrist_flex_l	wrist_dev_l
20	0.281915	1.34057	1.36625	0.688872	0.174038	1.03539	0.465201	0.000159198	0.00997069	0.448281	-0.241557	0	0	0.405657	-0.143719	-0.0132674	0.471019	-0.243464	0	0	-0.345569	0.0681543	-0.0176064	0.547263	-0.448875	1.44821	0.610764	0.268209	0	0	0.180773	-0.311539	0.37747	0.561067	1.01166	0	0
20.01	0.276212	1.3329	1.37097	0.689164	0.171718	1.03344	0.48259	0.000744898	0.0127118	0.459536	-0.239574	0	0	0.422191	-0.144924	-0.0125617	0.482091	-0.240164	0	0	-0.349484	0.0667771	-0.015881	0.549541	-0.448665	1.43639	0.611517	0.272783	0	0	0.185175	-0.312591	0.372925	0.565146	1.01501	0	0
20.02	0.269717	1.32427	1.37645	0.689521	0.169224	1.03125	0.502071	0.00134892	0.015963	0.47252	-0.237134	0	0	0.440642	-0.146054	-0.011209	0.494604	-0.236573	0	0	-0.352598	0.0652367	-0.0140335	0.551933	-0.448691	1.42435	0.612414	0.279375	0	0	0.189934	-0.314016	0.369587	0.569251	1.01685	0	0
20.03	0.263965	1.31547	1.38151	0.689909	0.166638	1.02895	0.522526	0.00201688	0.0189997	0.48716	-0.234318	0	0	0.459673	-0.147264	-0.00979071	0.507636	-0.232851	0	0	-0.355779	0.0638176	-0.0123894	0.554504	-0.448798	1.41227	0.613482	0.287065	0	0	0.195013	-0.3157	0.366812	0.573275	1.01709	0	0
20.04	0.257772	1.30627	1.38683	0.690306	0.164002	1.02655	0.54378	0.00258565	0.0219769	0.502208	-0.231544	0	0	0.478948	-0.148332	-0.00877627	0.520249	-0.229014	0	0	-0.358841	0.062099	-0.0108822	0.557078	-0.448864	1.39953	0.614679	0.294701	0	0	0.199999	-0.317425	0.363453	0.577406	1.01612	0	0
20.05	0.250679	1.2971	1.39253	0.690641	0.161374	1.02411	0.564927	0.00285247	0.0248604	0.516666	-0.228977	0	0	0.497405	-0.148937	-0.00786587	0.531746	-0.224864	0	0	-0.362276	0.0600075	-0.00927371	0.559986	-0.448936	1.38708	0.615768	0.302315	0	0	0.205002	-0.318859	0.359634	0.581335	1.01446	0	0
20.06	0.241801	1.28699	1.39974	0.69103	0.158681	1.02141	0.587093	0.00316732	0.0283736	0.531246	-0.225553	0	0	0.516894	-0.14951	-0.00838314	0.543459	-0.220292	0	0	-0.364766	0.0573395	-0.00792889	0.563113	-0.44864	1.37544	0.616681	0.309696	0	0	0.209509	-0.320512	0.355556	0.585711	1.01173	0	0
20.07	0.235955	1.27936	1.40501	0.691306	0.155852	1.01899	0.605658	0.00351312	0.0309517	0.544062	-0.222827	0	0	0.533402	-0.149792	-0.00775564	0.553551	-0.21711	0	0	-0.36996	0.0556362	-0.00733514	0.568599	-0.448439	1.36886	0.617533	0.315085	0	0	0.21558	-0.321887	0.352978	0.58874	1.00884	0	0
20.08	0.233612	1.27293	1.40917	0.691309	0.15282	1.01662	0.624017	0.00306936	0.031012	0.560087	-0.218784	0	0	0.550652	-0.149043	-0.00287466	0.566385	-0.213124	0	0	-0.376706	0.0555228	-0.00819882	0.574326	-0.448686	1.36138	0.619133	0.322021	0	0	0.222485	-0.323159	0.350578	0.592044	1.00676	0	0
20.09	0.229179	1.26594	1.41512	0.691298	0.14982	1.01415	0.642836	0.00217182	0.0314745	0.575513	-0.215209	0	0	0.568792	-0.147626	0.00163765	0.57975	-0.209099	0	0	-0.382855	0.0546933	-0.00892888	0.579462	-0.448729	1.35246	0.620186	0.329677	0	0	0.229738	-0.324051	0.347831	0.594489	1.0071	0	0
20.1	0.222967	1.25718	1.42138	0.691496	0.146931	1.01136	0.662529	0.0019791	0.0329082	0.588297	-0.212229	0	0	0.588893	-0.147072	0.00362874	0.594252	-0.204684	0	0	-0.386944	0.052866	-0.00834257	0.583058	-0.448471	1.3414	0.620759	0.336306	0	0	0.236579	-0.324608	0.344622	0.596563	1.00929	0	0
20.11	0.217012	1.24753	1.42662	0.691898	0.144111	1.00834	0.682636	0.00276665	0.0352298	0.599882	-0.209112	0	0	0.610094	-0.14762	0.00387957	0.609502	-0.200279	0	0	-0.390019	0.0506798	-0.00689616	0.585822	-0.447825	1.32953	0.620897	0.341616	0	0	0.243133	-0.325082	0.34107	0.598619	1.01221	0	0
20.12	0.212119	1.23796	1.43113	0.692359	0.141297	1.00526	0.702429	0.00395716	0.0377328	0.611288	-0.205691	0	0	0.631553	-0.148558	0.00387227	0.625102	-0.196124	0	0	-0.393297	0.048673	-0.00560871	0.589008	-0.44677	1.3189	0.620336	0.346462	0	0	0.249806	-0.325468	0.337147	0.600559	1.01534	0	0
20.13	0.208782	1.22967	1.43536	0.692541	0.138453	1.00228	0.720537	0.00424305	0.0382558	0.62238	-0.202145	0	0	0.652196	-0.148797	0.00502493	0.641064	-0.192162	0	0	-0.398123	0.0475846	-0.00553332	0.59368	-0.446023	1.3108	0.619747	0.350613	0	0	0.256839	-0.325325	0.33266	0.602122	1.01868	0	0
20.14	0.206492	1.22213	1.43965	0.692448	0.135552	0.999381	0.73757	0.00349311	0.0368811	0.632953	-0.198607	0	0	0.672373	-0.148321	0.0068356	0.656925	-0.188526	0	0	-0.403918	0.0473041	-0.00651561	0.599856	-0.445554	1.30575	0.619223	0.353728	0	0	0.264239	-0.324722	0.327945	0.603085	1.02171	0	0
20.15	0.203719	1.21421	1.44442	0.692456	0.132689	0.996299	0.755613	0.00271213	0.0358842	0.644809	-0.194513	0	0	0.693289	-0.148128	0.00727876	0.673586	-0.185112	0	0	-0.408903	0.0467241	-0.00760388	0.606104	-0.444624	1.30282	0.618401	0.35351	0	0	0.271396	-0.324476	0.324014	0.603761	1.02448	0	0
20.16	0.201355	1.20716	1.44792	0.692693	0.130001	0.99314	0.773303	0.00272765	0.035977	0.658056	-0.190167	0	0	0.713803	-0.148665	0.00725576	0.69255	-0.182201	0	0	-0.414098	0.0457169	-0.0081834	0.612868	-0.443085	1.30313	0.61706	0.34938	0	0	0.278094	-0.324783	0.32124	0.604324	1.02671	0	0
20.17	0.234981	1.22119	1.39754	0.694479	0.130316	0.990059	0.765531	0.0238322	0.0395201	0.672919	-0.180946	0	0	0.761005	-0.253473	-0.190914	0.840199	-0.20241	0	0	-0.433253	0.0503991	0.00984923	0.621542	-0.447812	1.31871	0.621418	0.346655	0	0	0.276187	-0.320733	0.314805	0.604909	1.02867	0	0
20.18	0.229572	1.21194	1.40347	0.694731	0.127792	0.986683	0.785787	0.0235235	0.0405679	0.6862	-0.175097	0	0	0.781801	-0.252201	-0.184604	0.853928	-0.197472	0	0	-0.437051	0.0470982	0.0126087	0.618555	-0.446868	1.2907	0.619687	0.370147	0	0	0.284145	-0.317659	0.304944	0.604586	1.04157	0	0
20.19	0.226547	1.2042	1.40786	0.694856	0.125189	0.983463	0.804032	0.0229922	0.040854	0.699187	-0.170741	0	0	0.800693	-0.249586	-0.175336	0.866035	-0.193146	0	0	-0.44213	0.045512	0.0132986	0.621416	-0.445769	1.2777	0.617822	0.379837	0	0	0.29189	-0.316107	0.299742	0.604465	1.04635	0	0
20.2	0.224465	1.19734	1.4116	0.694898	0.122617	0.980307	0.821067	0.0222287	0.0403947	0.712216	-0.166029	0	0	0.818742	-0.246581	-0.165241	0.878027	-0.189062	0	0	-0.447988	0.0443431	0.0138741	0.624539	-0.444769	1.26515	0.615982	0.388868	0	0	0.299826	-0.314528	0.295301	0.604321	1.05041	0	0
20.21	0.222236	1.19082	1.41537	0.69497	0.120084	0.977139	0.837574	0.021392	0.039726	0.725149	-0.161136	0	0	0.836442	-0.24339	-0.154894	0.889982	-0.185056	0	0	-0.453973	0.0429996	0.0146272	0.627555	-0.443623	1.25283	0.613912	0.398258	0	0	0.307935	-0.313101	0.291794	0.604175	1.0543	0	0
20.22	0.219653	1.18444	1.41917	0.69511	0.11761	0.973894	0.854045	0.020393	0.0388521	0.738032	-0.156454	0	0	0.854039	-0.240107	-0.144298	0.902067	-0.180979	0	0	-0.459612	0.0412888	0.0156859	0.630374	-0.442415	1.24085	0.61162	0.409178	0	0	0.316018	-0.311749	0.288897	0.603948	1.05776	0	0
20.23	0.217047	1.17803	1.42275	0.695309	0.115212	0.97056	0.870716	0.0191913	0.0373843	0.750894	-0.152156	0	0	0.871476	-0.236753	-0.133388	0.913775	-0.176945	0	0	-0.464679	0.0393513	0.0170803	0.632649	-0.441302	1.22816	0.609333	0.420939	0	0	0.324017	-0.310492	0.286909	0.603642	1.06109	0	0
20.24	0.214244	1.17153	1.42625	0.695565	0.112906	0.967139	0.88779	0.0178902	0.0357002	0.764094	-0.148121	0	0	0.888557	-0.233087	-0.121927	0.924855	-0.172627	0	0	-0.469164	0.0371267	0.0188772	0.634039	-0.440433	1.21396	0.607328	0.433043	0	0	0.331977	-0.309372	0.286159	0.603259	1.06425	0	0
20.25	0.21104	1.16498	1.43006	0.695853	0.110668	0.963654	0.905218	0.0166986	0.0343035	0.777901	-0.144097	0	0	0.905188	-0.228654	-0.109608	0.935183	-0.167842	0	0	-0.473212	0.0346077	0.0209237	0.634277	-0.439646	1.19761	0.605595	0.444909	0	0	0.340057	-0.308407	0.286758	0.602826	1.06682	0	0
20.26	0.207342	1.15813	1.43451	0.696148	0.108472	0.960083	0.923226	0.0155404	0.033525	0.792262	-0.140115	0	0	0.921674	-0.223059	-0.0959654	0.944974	-0.162248	0	0	-0.47666	0.0319301	0.0228486	0.633753	-0.438905	1.17986	0.604072	0.458145	0	0	0.34817	-0.307598	0.288381	0.602273	1.06775	0	0
